<?xml version="1.0" standalone="no"?>
<!DOCTYPE svg PUBLIC "-//W3C//DTD SVG 1.1//EN" "http://www.w3.org/Graphics/SVG/1.1/DTD/svg11.dtd" >
<svg xmlns="http://www.w3.org/2000/svg">
<metadata>
Created by FontForge 20120731 at Tue Feb 14 14:37:59 2017
 By admin
</metadata>
<defs>
<font id="iconfont" horiz-adv-x="1024" >
  <font-face 
    font-family="iconfont"
    font-weight="500"
    font-stretch="normal"
    units-per-em="1024"
    panose-1="2 0 6 3 0 0 0 0 0 0"
    ascent="896"
    descent="-128"
    x-height="792"
    bbox="0 -128 1024.04 896.043"
    underline-thickness="0"
    underline-position="0"
    unicode-range="U+0078-E6E5"
  />
<missing-glyph 
 />
    <glyph glyph-name=".notdef" 
 />
    <glyph glyph-name=".notdef" 
 />
    <glyph glyph-name=".null" horiz-adv-x="0" 
 />
    <glyph glyph-name="nonmarkingreturn" horiz-adv-x="341" 
 />
    <glyph glyph-name="x" unicode="x" horiz-adv-x="1001" 
d="M281 543q-27 -1 -53 -1h-83q-18 0 -36.5 -6t-32.5 -18.5t-23 -32t-9 -45.5v-76h912v41q0 16 -0.5 30t-0.5 18q0 13 -5 29t-17 29.5t-31.5 22.5t-49.5 9h-133v-97h-438v97zM955 310v-52q0 -23 0.5 -52t0.5 -58t-10.5 -47.5t-26 -30t-33 -16t-31.5 -4.5q-14 -1 -29.5 -0.5
t-29.5 0.5h-32l-45 128h-439l-44 -128h-29h-34q-20 0 -45 1q-25 0 -41 9.5t-25.5 23t-13.5 29.5t-4 30v167h911zM163 247q-12 0 -21 -8.5t-9 -21.5t9 -21.5t21 -8.5q13 0 22 8.5t9 21.5t-9 21.5t-22 8.5zM316 123q-8 -26 -14 -48q-5 -19 -10.5 -37t-7.5 -25t-3 -15t1 -14.5
t9.5 -10.5t21.5 -4h37h67h81h80h64h36q23 0 34 12t2 38q-5 13 -9.5 30.5t-9.5 34.5q-5 19 -11 39h-368zM336 498v228q0 11 2.5 23t10 21.5t20.5 15.5t34 6h188q31 0 51.5 -14.5t20.5 -52.5v-227h-327z" />
    <glyph glyph-name="check" unicode="&#xe645;" 
d="M888 598q-10 9 -23 8.5t-22 -10.5l-427 -454l-233 230q-10 9 -23 9t-22.5 -9.5t-9.5 -23t10 -22.5l256 -253h1v0q1 -1 7 -4q0 -1 1 -1.5t2 -1.5q6 -2 12 -2t12 3q1 0 2 1t2 1q5 3 7 5v0v0l449 479q9 9 9 22.5t-10 22.5z" />
    <glyph glyph-name="close" unicode="&#xe646;" 
d="M557 383l266 264q9 9 9 22t-9.5 22.5t-22.5 9.5t-23 -9l-265 -264l-263 264q-9 9 -22.5 9t-23 -9t-9.5 -22.5t10 -22.5l263 -264l-265 -264q-10 -9 -10 -22.5t9.5 -22.5t22.5 -9t23 9l265 264l265 -267q10 -9 23 -9t22.5 9.5t9.5 22.5t-9 23z" />
    <glyph glyph-name="back" unicode="&#xe679;" 
d="M672 -16q-20 0 -34 14l-352 352q-14 14 -14 34t14 34l352 352q14 14 34 14t34 -14t14 -34t-14 -34l-318 -318l318 -318q14 -14 14 -34t-14 -34t-34 -14z" />
    <glyph glyph-name="pullup" unicode="&#xe6a0;" 
d="M512 -64q-185 0 -316.5 131.5t-131.5 316.5t131.5 316.5t316.5 131.5t316.5 -131.5t131.5 -316.5t-131.5 -316.5t-316.5 -131.5zM512 768q-159 0 -271.5 -112.5t-112.5 -271.5t112.5 -271.5t271.5 -112.5t271.5 112.5t112.5 271.5t-112.5 271.5t-271.5 112.5zM694 438
l-158 160q-15 15 -35 7l-1 -0.5l-1 -0.5q-6 -3 -8 -6v0v0l-160 -159q-9 -9 -9 -22.5t9 -23t22.5 -9.5t22.5 10l104 103v-305q0 -13 9.5 -22.5t22.5 -9.5t22.5 9.5t9.5 22.5v307l105 -106q9 -10 23 -10q13 0 22.5 9.5t9.5 22.5t-10 23z" />
    <glyph glyph-name="right" unicode="&#xe6a3;" 
d="M761 364l1 1t1 2q7 13 4.5 28.5t-14.5 26.5l-353 334q-15 14 -34.5 13.5t-33.5 -15t-13 -34.5t15 -34l317 -299l-316 -305q-14 -13 -14.5 -33t13.5 -35q14 -14 35 -14q19 0 33 13l350 338l0.5 1t1 1t1 0.5l0.5 0.5q1 2 6 10z" />
    <glyph glyph-name="refresh" unicode="&#xe6a4;" 
d="M939.5 639.5q-12.5 4.5 -24.5 -1t-16 -18.5l-25 -69q-45 100 -133 166q-91 68 -202.5 80.5t-214.5 -30.5t-172 -134q-50 -66 -70.5 -145.5t-9.5 -162.5q12 -82 54.5 -153t110.5 -121q112 -83 251 -83q98 0 187.5 43t149.5 123q55 73 74 161q3 13 -4 24t-20 14t-24 -4.5
t-14 -20.5q-16 -74 -63 -135q-58 -77 -145.5 -113.5t-182 -25.5t-171.5 68q-57 43 -93 102.5t-46 129.5q-21 144 67 261q58 76 145.5 113t182 26t172.5 -68q87 -65 123 -167l-110 43q-13 5 -25 -0.5t-17 -18t0.5 -24.5t17.5 -17l162 -63q6 -2 12 -2h0.5h0.5q1 0 2 -0.5
t2 -0.5q23 0 30 22l58 161q4 12 -1.5 24t-18 16.5z" />
    <glyph glyph-name="info" unicode="&#xe6e5;" 
d="M512 -62q-91 0 -173.5 35.5t-142 95t-95 142t-35.5 173.5t35.5 173.5t95 142t142 95t173.5 35.5t173.5 -35.5t142 -95t95 -142t35.5 -173.5t-35.5 -173.5t-95 -142t-142 -95t-173.5 -35.5zM512 766q-104 0 -192 -51t-139 -139t-51 -192t51 -192t139 -139t192 -51t192 51
t139 139t51 192t-51 192t-139 139t-192 51zM512 592zM464 592q0 20 14 34t34 14t34 -14t14 -34t-14 -34t-34 -14t-34 14t-14 34zM512 128q-13 0 -22.5 9.5t-9.5 22.5v288q0 13 9.5 22.5t22.5 9.5t22.5 -9.5t9.5 -22.5v-288q0 -13 -9.5 -22.5t-22.5 -9.5z" />
    <glyph glyph-name="home" unicode="&#xe63b;" 
d="M365 705h-148q-46 0 -78 -32t-32 -78v-148q0 -45 32 -77.5t78 -32.5h148q45 0 77.5 32.5t32.5 77.5v148q0 46 -32.5 78t-77.5 32zM401 447q0 -15 -10.5 -25.5t-25.5 -10.5h-148q-15 0 -26 10.5t-11 25.5v148q0 15 11 26t26 11h148q15 0 25.5 -11t10.5 -26v-148zM807 705
h-148q-45 0 -77.5 -32t-32.5 -78v-148q0 -45 32.5 -77.5t77.5 -32.5h148q46 0 78 32.5t32 77.5v148q0 46 -32 78t-78 32zM844 447q0 -15 -11 -25.5t-26 -10.5h-148q-15 0 -25.5 10.5t-10.5 25.5v148q0 15 10.5 26t25.5 11h148q15 0 26 -11t11 -26v-148zM807 263h-148
q-45 0 -77.5 -32.5t-32.5 -77.5v-148q0 -46 32.5 -78t77.5 -32h148q46 0 78 32t32 78v148q0 45 -32 77.5t-78 32.5zM844 5q0 -15 -11 -26t-26 -11h-148q-15 0 -25.5 11t-10.5 26v148q0 15 10.5 25.5t25.5 10.5h148q15 0 26 -10.5t11 -25.5v-148zM365 263h-148
q-46 0 -78 -32.5t-32 -77.5v-148q0 -46 32 -78t78 -32h148q45 0 77.5 32t32.5 78v148q0 45 -32.5 77.5t-77.5 32.5zM401 5q0 -15 -10.5 -26t-25.5 -11h-148q-15 0 -26 11t-11 26v148q0 15 11 25.5t26 10.5h148q15 0 25.5 -10.5t10.5 -25.5v-148z" />
    <glyph glyph-name="checked" unicode="&#xe60d;" 
d="M32 864h960v-960h-960v960zM0 896v-1024h1024v1024h-1024zM992 -96h-960v960h960v-960zM96 800h832v-832h-832v832zM706 597l-264 -312l-132 115l-52 -61l192 -168l316 375zM701 642l-263 -311l-131 114l-94 -109l241 -211l359 424zM258 339l52 61l132 -115l264 312
l60 -51l-316 -375z" />
    <glyph glyph-name="book" unicode="&#xe60e;" 
d="M239 651q-9 0 -25 3q-37 7 -64 37v-657q0 -73 35 -106q12 -12 28 -18t26 -6h10h624v747h-634zM150 773q0 -37 26 -63.5t63 -26.5h591q-12 20 -18 43h-320v32h315q0 21 2 32h-437v32h445q3 13 16 42h-594q-37 0 -63 -26.5t-26 -64.5zM906 864v32h-667q-50 0 -85.5 -35.5
t-35.5 -86.5v-740q0 -86 46 -130q34 -32 83 -32h659v811h-36q-60 74 0 181h36zM873 -96h-624q-37 -3 -64 24q-35 33 -35 106v657q27 -30 64 -37q16 -3 25 -3h634v-747zM817 822h-445v-32h437q-2 -11 -2 -32h-315v-32h320q6 -23 18 -43h-591q-37 0 -63 26.5t-26 63.5
q0 38 26 64.5t63 26.5h594q-13 -29 -16 -42zM809 -32v683h-570q-9 0 -25 3v-686h595z" />
    <glyph glyph-name="blackboard" unicode="&#xe601;" 
d="M603 161zM419 161zM32 231h960v-53h-960v53zM115 826h795v-564h-795v564zM338 146l-68 -203h61l67 203h-60zM685 146h-61l67 -203h61zM1024 263h-83v595h-858v-596h-83v-117h304l-78 -235h128l46 139h222l47 -139h128l-79 235h306v118zM115 826h795v-564h-795v564z
M331 -57h-61l68 203h60zM411 82l21 64h160l21 -64h-202zM624 146h61l67 -203h-61zM992 178h-960v53h960v-53zM178 762h667v-436h-667v436zM320 489h-24v93q-16 -13 -32 -20v23q4 1 21 11q10 6 16 21h19v-128zM389 506v34h-34v22h34v34h22v-34h34v-22h-34v-34h-22zM544 513
v-24h-86q3 16 7.5 24t27.5 30l21 21q4 7 4 14q0 8 -4.5 13t-12.5 5t-13 -5t-5 -16l-24 3q3 22 15 29q12 10 28 10q19 0 31 -10q11 -9 11 -25q0 -7 -3 -16.5t-10 -15.5l-16 -16q-12 -10 -14 -15q-1 -1 -2.5 -3t-2.5 -3h48zM560 559v23h90v-23h-90zM560 521v22h90v-22h-90z
M664 522l24 4q0 -8 6 -15q5 -5 13 -5q9 0 13 7q5 5 5 16q0 9 -5 14t-13 5q-6 0 -11 -2l3 21q9 0 16 5q5 3 5 13q0 6 -3 9.5t-9.5 3.5t-11.5 -5t-5 -13l-22 3q3 14 6 19t13 12q6 3 19 3q20 0 29 -11q10 -10 10 -21q0 -18 -20 -27q11 -3 18 -12q6 -6 6 -19q0 -16 -12 -29
q-12 -11 -31 -11q-17 0 -29 10q-11 8 -14 25z" />
    <glyph glyph-name="computer" unicode="&#xe602;" 
d="M944 811h-864q-20 0 -34 -13.5t-14 -34.5v-512q0 -20 14 -34t34 -14h864q20 0 34 14t14 34v512q0 21 -14 34.5t-34 13.5zM96 747h832v-480h-832v480zM258 -6h508v-37h-508v37zM392 171h240v-145h-240v145zM944 843h-864q-34 0 -57 -23t-23 -57v-512q0 -33 23 -56.5
t57 -23.5h280v-145h-134v-101h572v101h-134v145h280q34 0 57 23.5t23 56.5v512q0 34 -23 57t-57 23zM766 -6v-37h-508v37h508zM392 26v145h240v-145h-240zM992 251q0 -20 -14 -34t-34 -14h-864q-20 0 -34 14t-14 34v512q0 21 14 34.5t34 13.5h864q20 0 34 -13.5t14 -34.5
v-512zM621 445l-98 97l45 45l-152 26l26 -152l48 48l97 -98zM568 541l66 65l-258 45l45 -257l69 68l97 -97l79 78zM442 461l-26 152l152 -26l-45 -45l98 -97l-34 -34l-97 98z" />
    <glyph glyph-name="book-1" unicode="&#xe612;" 
d="M150 773q0 -37 26 -63.5t63 -26.5h591q-12 20 -18 43h-320v32h315q0 21 2 32h-437v32h445q3 13 16 42h-594q-37 0 -63 -27t-26 -64zM239 651q-9 0 -25 3q-37 7 -64 37v-657q0 -73 35 -106q12 -11 28 -17t26 -7h10h624v747h-634zM906 864v32h-667q-50 0 -85.5 -35.5
t-35.5 -86.5v-740q0 -86 46 -130q34 -32 83 -32h659v811h-36q-5 5 -10 11.5t-11.5 23.5t-8.5 36t5 48.5t25 61.5h36zM817 822h-445v-32h437q-2 -11 -2 -32h-315v-32h320q6 -23 18 -43h-591q-37 0 -63 26.5t-26 63.5t26 64t63 27h594q-13 -29 -16 -42zM873 -96h-624
q-37 -2 -64 24q-35 33 -35 106v657q27 -30 64 -37q16 -3 25 -3h634v-747zM809 -32v683h-570q-9 0 -25 3v-686h595zM450 408q0 -28 20.5 -48.5t49 -20.5t48.5 20.5t20 48.5t-20 48.5t-48.5 20.5t-49 -20.5t-20.5 -48.5zM519 509q-42 0 -71.5 -29.5t-29.5 -71.5t29.5 -71.5
t71.5 -29.5t71.5 29.5t29.5 71.5t-29.5 71.5t-71.5 29.5zM519 339q-29 0 -49 20t-20 49t20 49t49 20t49 -20t20 -49t-20 -49t-49 -20zM642 144q-11 47 -45 78t-78 31t-78 -31t-45 -78h246zM519.5 285q-64.5 0 -111 -50.5t-49.5 -122.5h319q-2 72 -48 122.5t-110.5 50.5z
M519 253q44 0 78 -31t45 -78h-246q11 47 45 78t78 31z" />
    <glyph glyph-name="calendar" unicode="&#xe613;" 
d="M992 680q0 21 -14.5 35.5t-35.5 14.5h-141v-46h-32v46h-511v-48h-32v48h-144q-21 0 -35.5 -14.5t-14.5 -35.5v-155h960v155zM32 11q0 -21 14.5 -35.5t35.5 -14.5h862q20 0 35 14.5t15 35.5v482h-962v-482zM944 762h-143v79h-32v-79h-511v79h-32v-79h-144q-34 0 -58 -24
t-24 -59v-670q0 -34 24 -58t58 -24h860q34 0 58 24t24 58v670q1 34 -22.5 58.5t-57.5 24.5zM994 11q0 -21 -15 -35.5t-35 -14.5h-862q-21 0 -35.5 14.5t-14.5 35.5v482h962v-482zM32 680q0 21 14.5 35.5t35.5 14.5h144v-48h32v48h511v-46h32v46h141q21 0 35.5 -14.5
t14.5 -35.5v-155h-960v155zM644 246h-101l-30 98l-31 -98h-101l82 -61l-30 -97l80 60l80 -60l-31 97zM739 280h-172l-54 173l-55 -173h-171l139 -106l-54 -173l141 106l141 -106l-55 173zM513 148l-80 -60l30 97l-82 61h101l31 98l30 -98h101l-82 -61l31 -97zM418 612l24 -8
q-4 -21 -19 -31q-14 -10 -34 -10q-24 0 -41 18q-16 16 -16 47t16 49q17 18 43 18q22 0 37 -15q7 -5 13 -22l-24 -8q-3 9 -10 16q-10 6 -18 6q-15 0 -22 -9q-8 -8 -8 -32q0 -23 8 -34q10 -9 22 -9t18 6q6 2 11 18zM577 565h-27l-12 29h-49l-10 -29h-27l50 127h27zM530 615
l-17 48l-16 -48h33zM591 565v125h26v-104h62v-21h-88z" />
    <glyph glyph-name="book-2" unicode="&#xe614;" 
d="M32 549h205v-615h-205v615zM32 816h205v-235h-205v235zM0 848v-944h269v944h-269zM32 -66v615h205v-615h-205zM237 581h-205v235h205v-235zM368 549h205v-615h-205v615zM368 816h205v-235h-205v235zM336 848v-944h269v944h-269zM368 -66v615h205v-615h-205zM573 581h-205
v235h205v-235zM931 598l-21 234l-203 -19l21 -232zM989 -45l-55 611l-203 -17l55 -613zM939 866l-267 -23l85 -941l267 23zM910 832l21 -234l-203 -17l-21 232zM934 566l55 -611l-203 -19l-55 613z" />
    <glyph glyph-name="blackboard-2" unicode="&#xe615;" 
d="M603 159zM419 159zM32 230h960v-53h-960v53zM338 145l-68 -203h61l67 203h-60zM115 826h795v-564h-795v564zM624 145l67 -203h61l-67 203h-61zM1024 262h-83v596h-858v-596h-83v-117h304l-78 -235h128l46 139h222l47 -139h128l-79 235h306v117zM115 826h795v-564h-795
v564zM331 -58h-61l68 203h60zM411 81l21 64h160l21 -64h-202zM752 -58h-61l-67 203h61zM992 177h-960v53h960v-53zM178 761h667v-437h-667v437zM334 540h-50v-46h56v-14h-73v129h70v-14h-53v-41h50v-14zM355 544v12h99v-12h-99zM355 507v11h99v-11h-99zM476 547q0 15 -1 26
h15v-15h1q10 17 29 17t26 -19h1q4 8 10 12q9 7 20.5 7t21 -9.5t9.5 -31.5v-54h-16v52q0 29 -21 29q-14 0 -19 -15q-2 -5 -2 -9v-57h-16v55q0 26 -20 26q-15 0 -21 -17q-1 -3 -1 -8v-56h-16v67v0zM702 483q-10 -5 -27 -5q-21 0 -33.5 13t-12.5 34q0 22 13.5 36t36.5 14
q14 0 23 -5l-4 -13q-7 4 -19 4q-16 0 -24.5 -10t-8.5 -25q0 -16 9 -25.5t23 -9.5q11 0 21 5zM717 542v6l7 6q23 22 23 33q0 12 -13 12q-6 0 -13 -5l-2 5q7 7 17 7t14.5 -5.5t4.5 -12.5q0 -13 -21 -34l-5 -4v-1h28v-7h-40v0z" />
    <glyph glyph-name="cloud-computing" unicode="&#xe616;" 
d="M511 384l-168 -236h122v-227h97v227h115zM853 585h-75v16q0 6 -1.5 15.5t-9 28.5t-21.5 33t-38 24q-26 9 -52 9t-39 -4l-13 -5l-16 -6v1l-7 14q-23 63 -77.5 99.5t-121.5 36.5q-15 0 -23 -1q-80 -9 -136 -69.5t-57 -143.5q0 -8 3 -30l2 -16l-16 -2q-2 0 -5 -0.5t-5 -0.5
h-4q-47 -11 -78 -49t-31 -87v-30q0 -58 40.5 -98.5t98.5 -40.5h228l112 159l112 -159h228q58 0 98.5 40.5t40.5 98.5h2v28q0 36 -18 69q-18 32 -50 51t-71 19zM851 619h-44q-15 87 -90 113q-52 19 -112 5q-31 66 -91 104t-132 38q-102 0 -174 -71.5t-72 -172.5q0 -13 1 -19
q-60 -12 -98.5 -59t-38.5 -108v-30q0 -71 50 -121t121 -50h206l-93 -132h151v-227h161v227h144l-93 132h206q71 0 121 50t50 121v30q-1 71 -51.5 120.5t-121.5 49.5zM992 418h-2q0 -58 -40.5 -98.5t-98.5 -40.5h-228l-112 159l-112 -159h-228q-58 0 -98.5 40.5t-40.5 98.5
v30q0 49 31 87t78 49h4q2 0 5 0.5t5 0.5l16 2l-2 16q-3 22 -3 30q1 83 57 143.5t136 69.5q8 1 23 1q67 0 121.5 -36.5t77.5 -99.5l7 -14v-1l16 6q5 2 14.5 5t36.5 3.5t53 -8.5q24 -10 38 -24t21.5 -33t9 -28.5t1.5 -15.5v-16h75q39 0 71 -19t50 -51q18 -33 18 -69v-28z
M677 148h-115v-227h-97v227h-122l168 236z" />
    <glyph glyph-name="crayons" unicode="&#xe617;" 
d="M989 570l-103 240h-86l-102 -240h291zM694 538h298v-76h-298v76zM694 430h298v-472h-298v472zM363 430h298v-472h-298v472zM363 538h298v-76h-298v76zM555 810h-86l-103 -240h292zM224 810h-86l-103 -240h291zM32 430h298v-472h-298v472zM32 538h298v-76h-298v76z
M1024 570l-117 272h-129l-100 -236l-102 236h-128l-102 -236l-101 236h-128l-117 -272v-644h1024v644zM138 810h86l102 -240h-291zM32 430h298v-472h-298v472zM330 462h-298v76h298v-76zM469 810h86l103 -240h-292zM363 538h298v-76h-298v76zM661 -42h-298v472h298v-472z
M800 810h86l103 -240h-291zM992 -42h-298v472h298v-472zM992 462h-298v76h298v-76z" />
    <glyph glyph-name="books" unicode="&#xe618;" 
d="M630 882v-18h-22q-17 -31 -17.5 -59t5 -39.5t12.5 -18.5h27v-147h304v-32h-22q-38 -71 0 -117h27v-342q80 126 80 275q0 180 -111.5 319t-282.5 179zM386 -10v176h-212h-3q-35 0 -61 24q-33 32 -33 95v369q-77 -124 -77 -270q0 -130 60.5 -242.5t166 -183t233.5 -83.5
q-24 5 -41 21q-33 31 -33 94zM475 602q-37 0 -63 -27t-26 -65q0 38 26.5 65t64.5 27h-2zM565 602h40v113h-42v-113h2zM149 717q5 -2 17 -2h2q-11 0 -18 2q-11 2 -21 7q-9 -11 -19 -23v-416q0 -50 23 -71q8 -7 18 -11t17 -5h6h212v40h-237v479zM166 747h405q-6 13 -8 21h-219
v32h214v13h-299v16q-58 -33 -106 -80q7 -2 13 -2zM565 845q1 3 3.5 9.5t4.5 9.5h-239q-23 -9 -45 -19h276zM475 571q-24 0 -40.5 -17.5t-16.5 -41.5q0 -25 16.5 -42t40.5 -17h405q-6 13 -8 21h-219v32h214v12h-299v32h306q1 4 3.5 10t4.5 10v1h-407zM771 -58h101v479h-398
q-10 0 -16 1v-480h313zM475 453h405q-6 13 -8 21h-219v32h214v12h-299v32h306q1 4 3.5 10t4.5 10v1h-407q-24 0 -40.5 -17.5t-16.5 -41.5q0 -25 16.5 -42t40.5 -17zM153 749q7 -2 13 -2h405q-6 13 -8 21h-219v32h214v13h-299v32h306q1 3 3.5 9.5t4.5 9.5h-407q-23 0 -40 -17
t-17 -41q0 -21 12.5 -36.5t31.5 -20.5zM477 602h128v113h-437q-11 0 -18 2q-11 2 -21 7t-19 12v-451q0 -50 23 -71q8 -7 18 -11t17 -5h6h212v312q0 38 26.5 65t64.5 27zM917 451q-38 46 0 117h22v32h-304v147h-27q-7 7 -12.5 18.5t-5 39.5t17.5 59h22v32h-464
q-37 0 -63 -26.5t-26 -64.5v-520q0 -63 33 -95q26 -24 61 -24h215v-176q0 -63 33 -94q17 -16 41 -21q11 -3 20 -3h464v579h-27zM882 571v-1q-2 -4 -4.5 -10t-3.5 -10h-306v-32h299v-12h-214v-32h219q2 -8 8 -21h-405q-24 0 -40.5 17t-16.5 42q0 24 16.5 41.5t40.5 17.5h407z
M386 238v-40h-212q-24 -1 -41 16q-23 21 -23 71v451q9 -7 19 -12t21 -7q7 -2 18 -2h437v-113h-128q-38 0 -64.5 -27t-26.5 -65v-272zM166 864h407q-2 -3 -4.5 -9.5t-3.5 -9.5h-306v-32h299v-13h-214v-32h219q2 -8 8 -21h-405q-6 0 -13 2q-19 5 -31.5 20.5t-12.5 36.5
q0 24 17 41t40 17zM912 65v-161h-430q-23 -2 -42 16q-24 22 -24 70v452q16 -14 40 -20h0.5h1.5q6 -1 16 -1h438v-356zM475 602h88v113h-397q-12 0 -17 2v-479h237v272q0 38 26 65t63 27z" />
    <glyph glyph-name="computer-1" unicode="&#xe603;" 
d="M944 811h-864q-20 0 -34 -13.5t-14 -34.5v-512q0 -20 14 -34t34 -14h864q20 0 34 14t14 34v512q0 21 -14 34.5t-34 13.5zM928 267h-832v480h832v-480zM96 267h832v480h-832v-480zM502 635h330v-32h-330v32zM502 523h330v-32h-330v32zM502 411h330v-32h-330v32zM258 -6
h508v-37h-508v37zM392 171h240v-145h-240v145zM944 843h-864q-34 0 -57 -23t-23 -57v-512q0 -33 23 -56.5t57 -23.5h280v-145h-134v-101h572v101h-134v145h280q34 0 57 23.5t23 56.5v512q0 34 -23 57t-57 23zM766 -6v-37h-508v37h508zM392 26v145h240v-145h-240zM992 251
q0 -20 -14 -34t-34 -14h-864q-20 0 -34 14t-14 34v512q0 21 14 34.5t34 13.5h864q20 0 34 -13.5t14 -34.5v-512zM502 635h330v-32h-330v32zM502 523h330v-32h-330v32zM502 411h330v-32h-330v32zM250 486v-127l52 55l52 -55v132zM302 571zM226 570.5q0 -31.5 22.5 -54
t54 -22.5t54 22.5t22.5 54t-22.5 54t-54 22.5t-54 -22.5t-22.5 -54zM302.5 679q-44.5 0 -76.5 -31.5t-32 -76.5q0 -53 41 -85h-1v-167l68 72l68 -72v167q41 33 41 85q0 45 -32 76.5t-76.5 31.5zM302.5 494q-31.5 0 -54 22.5t-22.5 54t22.5 54t54 22.5t54 -22.5t22.5 -54
t-22.5 -54t-54 -22.5zM338 399l-36 39l-36 -39v69q18 -6 36.5 -6t35.5 6v-69z" />
    <glyph glyph-name="crayons-1" unicode="&#xe61a;" 
d="M579 482h27l42 334l44 47q-84 32 -175 33l62 -88v-326zM1024 384q0 144 -74 265t-196 186l19 -35l-40 -318h59l-62 -561q133 62 213.5 187t80.5 276zM296 480v328l40 57q-149 -54 -242.5 -185.5t-93.5 -295.5q0 -152 81 -277t214 -187l-63 560h64zM424 482h30v326l63 88
h-2.5h-2.5q-71 0 -139 -19l51 -69v-326zM517 840l-27 -37h54zM685 806l53 -6l-23 40zM485 771h62v-289h-62v289zM328 771h62v-291h-62v291zM738 768l-63 6l-35 -292h62zM267 450l10 -80h469l9 80h-488zM330 -96h366l48 432h-462zM358 842l-27 -37h55zM733 482l40 318l-19 35
l-32 59l-30 -31l-44 -47l-42 -334h-27v326l-62 88v0v0l-63 -88v-326h-30v326l-51 69l-15 19l-22 -31l-40 -57v-328h-64l63 -560l6 -48h424l5 49l62 561h-59zM685 806l30 34l23 -40zM675 774l63 -6l-36 -286h-62zM517 840l27 -37h-54zM485 771h62v-289h-62v289zM358 842
l28 -37h-55zM328 771h62v-291h-62v291zM696 -96h-366l-48 432h462zM277 370l-10 80h488l-9 -80h-469z" />
    <glyph glyph-name="cursor" unicode="&#xe61b;" 
d="M512 864q-130 0 -240.5 -64.5t-175 -175t-64.5 -240.5t64.5 -240.5t175 -175t240.5 -64.5t240.5 64.5t175 175t64.5 240.5t-64.5 240.5t-175 175t-240.5 64.5zM512 896q-212 0 -362 -150t-150 -362t150 -362t362 -150t362 150t150 362t-150 362t-362 150zM512 -96
q-130 0 -240.5 64.5t-175 175t-64.5 240.5t64.5 240.5t175 175t240.5 64.5t240.5 -64.5t175 -175t64.5 -240.5t-64.5 -240.5t-175 -175t-240.5 -64.5zM512 384zM120 384q0 -162 115 -277t277 -115t277 115t115 277t-115 277t-277 115t-277 -115t-115 -277zM477 355l141 -141
l57 58l-141 141l71 70l-243 42l41 -243zM579 414l91 92l-348 60l60 -348l95 94l141 -141l102 103zM605 483l-71 -70l141 -141l-57 -58l-141 141l-74 -73l-41 243z" />
    <glyph glyph-name="cup" unicode="&#xe61c;" 
d="M820 551v313h-615v-311q0 -102 85 -195l1 -2q67 -72 175 -130l8 -5v-93h-48v-73h45v-16q0 -29 -20.5 -50.5t-53 -31.5t-57 -14.5t-49.5 -6.5v-34h441v32q-24 2 -48.5 6.5t-57.5 15t-53 31.5t-20 50v16h44v74h-48v93l8 5q35 18 66 38t68.5 52t64.5 66t45.5 79t18.5 91z
M964 790q-56 36 -112 7v99h-679v-98q-55 29 -112 -8q-44 -28 -39 -102q5 -94 73.5 -199t173.5 -159q72 -76 173 -128v-42h-48v-137h40q-13 -29 -64 -42t-96 -13h-16v-96h505v96h-16q-42 0 -94.5 13.5t-66.5 41.5h40v137h-48v42q100 53 172 127q71 35 128.5 98.5t88 131.5
t34.5 129q8 74 -37 102zM557 225l-8 -5v-93h48v-74h-44v-16q0 -29 20 -50t53 -31.5t57.5 -15t48.5 -6.5v-32h-441v34q25 2 49.5 6.5t57 14.5t53 31.5t20.5 50.5v16h-45v73h48v93l-8 5q-108 58 -175 130q-1 0 -1 2q-85 93 -85 195v311h615v-313q0 -46 -18.5 -91t-45.5 -79
t-64.5 -66t-68.5 -52t-66 -38zM54 689q-2 59 24 76q51 33 95 -5v-209q0 -74 40 -144q-69 57 -112 136t-47 146zM971 689q-4 -67 -48 -147.5t-114 -137.5q42 70 42 147v207q44 38 96 7q26 -17 24 -76zM561 422h-58v219q-34 -31 -75 -45v53q24 8 49 29q28 23 37 48h48v-304h-1
z" />
    <glyph glyph-name="desk" unicode="&#xe604;" 
d="M32 781h960v-213h-960v213zM805 536h53v-549h-53v549zM168 536h53v-549h-53v549zM0 813v-277h134v-581h117v581h520v-581h117v581h136v277h-1024zM221 -13h-53v549h53v-549zM858 -13h-53v549h53v-549zM992 568h-960v213h960v-213zM381 690h264v-32h-264v32z" />
    <glyph glyph-name="diploma-1" unicode="&#xe61e;" 
d="M32 782h960v-796h-960v796zM0 814v-860h1024v860h-1024zM992 -14h-960v796h960v-796zM423 332v-213l94 110l84 -107v210q-42 -21 -89 -21t-89 21zM512 675q-69 0 -117.5 -49t-48.5 -117q0 -49 26 -89t68 -60q34 -17 72 -17q47 0 87 25q36 22 57.5 59.5t21.5 81.5
q0 68 -48.5 117t-117.5 49zM512 707q-82 0 -140 -58t-58 -140q0 -47 20.5 -88t56.5 -69v-320l125 147l117 -150v323q36 28 56.5 69t20.5 88q0 82 -58 140t-140 58zM599 368q-40 -25 -87 -25q-38 0 -72 17q-42 20 -68 60t-26 89q0 68 48.5 117t117.5 49t117.5 -49t48.5 -117
q0 -44 -21.5 -81.5t-57.5 -59.5zM601 122l-84 107l-94 -110v213q42 -21 89 -21t89 21v-210zM574 419l-62 45l-62 -45l24 74l-63 45h77l24 73l24 -73h77l-63 -45z" />
    <glyph glyph-name="file" unicode="&#xe605;" 
d="M770 -75l112 110h-112v-110zM130 -96h608v163h156v797h-764v-960zM98 896v-1024h665l163 163v861h-828zM770 -75v112h112zM894 67h-156v-163h-608v960h764v-797zM677 621l-234 -312l-105 97l-42 -49l155 -144l275 368zM672 667l-232 -310l-104 96l-83 -98l205 -189
l315 421zM296 357l42 49l105 -97l234 312l49 -40l-275 -368z" />
    <glyph glyph-name="ebook" unicode="&#xe620;" 
d="M842 864h-659q-19 0 -33.5 -14t-14.5 -34v-864q0 -19 14 -33.5t34 -14.5h658q19 0 33.5 14t14.5 34v864q0 20 -13.5 34t-33.5 14zM842 896h-659q-32 0 -56 -23.5t-24 -56.5v-864q0 -33 23.5 -56.5t56.5 -23.5h658q32 0 56 23.5t24 56.5v864q0 33 -23 56.5t-56 23.5z
M889 -48q0 -19 -14 -33.5t-34 -14.5h-658q-19 0 -33.5 14t-14.5 34v864q0 19 14 33.5t34 14.5h658q19 0 33.5 -14t14.5 -34v-864zM513 -38zM489 -38q0 -10 7 -17t17 -7t17 7t7 17t-7 17t-17 7t-17 -7t-7 -17zM209 797h608v-744h-608v744zM177 829v-808h672v808h-672zM817 53
h-608v744h608v-744zM295 704h437v-32h-437v32zM295 616h437v-32h-437v32zM295 528h437v-32h-437v32zM295 440h437v-32h-437v32zM295 352h437v-32h-437v32zM295 264h437v-32h-437v32zM295 176h437v-32h-437v32z" />
    <glyph glyph-name="glasses" unicode="&#xe621;" 
d="M512 384zM0 384q0 -139 68.5 -257t186.5 -186.5t257 -68.5t257 68.5t186.5 186.5t68.5 257t-68.5 257t-186.5 186.5t-257 68.5t-257 -68.5t-186.5 -186.5t-68.5 -257zM870 491h-251q-20 0 -34 -13.5t-14 -34.5v-117q0 -20 14 -34t34 -14h251q21 0 34.5 14t13.5 34v117
q0 20 -13.5 34t-34.5 14zM403 491h-251q-20 0 -34 -13.5t-14 -34.5v-117q0 -20 14 -34t34 -14h251q21 0 34.5 14t13.5 34v117q0 20 -14 34t-34 14zM950 438v5q0 34 -23 57t-57 23h-251q-33 0 -56.5 -23t-23.5 -57v-5h-54v5q0 34 -23.5 57t-56.5 23h-253q-34 0 -57 -23
t-23 -57v-5h-72v-32h72v-80q0 -33 23 -56.5t57 -23.5h251q34 0 57 23.5t23 56.5v80h55v-80q0 -33 23 -56.5t57 -23.5h251q33 0 56.5 23.5t23.5 56.5v80h75v32h-74zM451 326q0 -20 -13.5 -34t-34.5 -14h-251q-20 0 -34 14t-14 34v117q0 21 14 34.5t34 13.5h251q20 0 34 -14
t14 -34v-117zM918 326q0 -20 -13.5 -34t-34.5 -14h-251q-20 0 -34 14t-14 34v117q0 21 14 34.5t34 13.5h251q21 0 34.5 -14t13.5 -34v-117z" />
    <glyph glyph-name="grades" unicode="&#xe606;" 
d="M512 384zM120 384q0 -162 115 -277t277 -115t277 115t115 277t-115 277t-277 115t-277 -115t-115 -277zM512 896q-212 0 -362 -150t-150 -362t150 -362t362 -150t362 150t150 362t-150 362t-362 150zM512 -96q-130 0 -240.5 64.5t-175 175t-64.5 240.5t64.5 240.5
t175 175t240.5 64.5t240.5 -64.5t175 -175t64.5 -240.5t-64.5 -240.5t-175 -175t-240.5 -64.5zM632 203h-78l-31 82h-142l-29 -82h-77l139 355h76zM501 344l-50 133l-48 -133h98zM675 387v67h-69v47h69v67h45v-67h69v-47h-69v-67h-45z" />
    <glyph glyph-name="diploma" unicode="&#xe607;" 
d="M513 384zM74 384q0 -89 34.5 -170.5t93.5 -140.5t140.5 -93.5t170.5 -34.5t170.5 34.5t140 93.5t93.5 140.5t35 170.5t-35 170.5t-93.5 140.5t-140 93.5t-170.5 34.5t-170.5 -34.5t-140.5 -93.5t-93.5 -140.5t-34.5 -170.5zM529 365zM364 192l33 5l16 -31l101 181h-57z
M994 491.5q0 46.5 -20 80t-46 33.5h-303q26 -41 26 -112q0 -73 -26 -114h301q28 0 48 33t20 79.5zM556 346l101 -180l16 31l35 -5l-94 154h-58zM577 379q14 0 28 33t14 81q0 33 -7 60t-16.5 40.5t-18.5 13.5h-47q17 -20 26 -48q11 -31 11 -66q0 -18 -3 -37q-8 -48 -34 -77
h47zM163 491q0 47 -19 80t-45 34h-1v0q-27 0 -46.5 -34t-19.5 -80q0 -40 15.5 -71.5t38.5 -39.5h0.5h0.5q3 -1 5 -2h1.5h0.5h3.5h0.5h1h4h0.5h1.5q24 5 41 38t17 75zM534 493q0 53 -25 88l-0.5 0.5l-0.5 0.5q-1 2 -2 3q-18 22 -38 22h-308q0 -1 0.5 -1.5l0.5 -0.5
q36 -44 36 -112v-0.5v-0.5q0 -71 -37 -113h308q27 0 46.5 33.5t19.5 80.5zM926 637h-828q-41 0 -69.5 -42t-28.5 -103.5t28.5 -103.5t69.5 -42h320l-118 -199l80 13l32 -63l123 223l124 -221l32 62l80 -13l-119 199h274q41 0 69.5 42.5t28.5 103.5t-28 102.5t-70 41.5z
M105 378h-1.5h-0.5h-4h-1h-0.5h-3.5h-0.5h-1.5q-2 1 -5 2h-0.5h-0.5q-23 8 -38.5 39.5t-15.5 71.5q0 46 19.5 80t46.5 34v0h1q26 -1 45 -34t19 -80q0 -42 -17 -75t-41 -38zM161 379h-1q37 42 37 113v0.5v0.5q0 68 -36 112l-0.5 0.5t-0.5 1.5h308q20 0 38 -22q1 -2 2 -3
l0.5 -0.5l0.5 -0.5q25 -35 25 -88q0 -47 -19.5 -80.5t-46.5 -33.5h-307zM413 166l-16 31l-33 -5l93 155h57zM535 379h-5q26 29 34 77q3 19 3 37q0 35 -11 66q-9 28 -26 48h47q14 0 28 -33t14 -81q0 -33 -7 -60t-16.5 -40.5t-18.5 -13.5h-42zM708 192l-35 5l-16 -31l-101 180
h58zM926 379h-301q26 41 26 114q0 71 -26 112h303q26 0 46 -33.5t20 -80t-20 -79.5t-48 -33z" />
    <glyph glyph-name="divide" unicode="&#xe624;" 
d="M512 864q-130 0 -240.5 -64.5t-175 -175t-64.5 -240.5t64.5 -240.5t175 -175t240.5 -64.5t240.5 64.5t175 175t64.5 240.5t-64.5 240.5t-175 175t-240.5 64.5zM512 896q-212 0 -362 -150t-150 -362t150 -362t362 -150t362 150t150 362t-150 362t-362 150zM512 -96
q-130 0 -240.5 64.5t-175 175t-64.5 240.5t64.5 240.5t175 175t240.5 64.5t240.5 -64.5t175 -175t64.5 -240.5t-64.5 -240.5t-175 -175t-240.5 -64.5zM512 384zM120 384q0 -162 115 -277t277 -115t277 115t115 277t-115 277t-277 115t-277 -115t-115 -277zM240 400h544v-32
h-544v32zM512 498q-30 0 -52 21.5t-22 51.5t22 52t52 22t52 -22t22 -52t-22 -51.5t-52 -21.5zM512 613q-17 0 -29.5 -12.5t-12.5 -29.5t12.5 -29t29.5 -12t29.5 12t12.5 29t-12.5 29.5t-29.5 12.5zM512 123q-30 0 -52 22t-22 52t21.5 52.5t52.5 22.5t52.5 -21.5t21.5 -52
t-22 -53t-52 -22.5zM512 240q-17 0 -29.5 -12.5t-12.5 -29t12.5 -29t29.5 -12.5t29.5 12.5t12.5 29t-12.5 29t-29.5 12.5z" />
    <glyph glyph-name="flag" unicode="&#xe625;" 
d="M512 384zM0 384q0 -139 68.5 -257t186.5 -186.5t257 -68.5t257 68.5t186.5 186.5t68.5 257t-68.5 257t-186.5 186.5t-257 68.5t-257 -68.5t-186.5 -186.5t-68.5 -257zM877 293zM438 742l-17 -3q-114 -26 -203 23v-362q72 -68 289 -18q39 9 83 10t79.5 -3.5t72.5 -13.5
t60 -16.5t43 -16.5h1v389q-51 18 -101 27.5t-85 11.5t-81 -3t-69.5 -9.5t-71.5 -15.5zM866 757q-70 25 -131 36t-118.5 8t-92.5 -9t-94 -19l-17 -3q-104 -23 -184 21q29 16 29 48q0 24 -17 40.5t-40.5 16.5t-40 -16.5t-16.5 -40.5q0 -19 11 -33.5t29 -20.5v-913h32v488
q89 -56 298 -8q25 6 53 8t53.5 1t51 -4.5t48 -8.5t43 -11t37 -11.5t28 -10t18.5 -7l7 -2.5l22 -12v460zM846 342h-1q-20 9 -43 16.5t-60 16.5t-72.5 13.5t-79.5 3.5t-83 -10q-217 -50 -289 18v362q89 -49 203 -23l17 3q48 11 71.5 15.5t69.5 9.5t81 3t85 -11.5t101 -27.5
v-389zM201 839zM177 839q0 -10 7 -17t17 -7t17 7t7 17t-7 17t-17 7t-17 -7t-7 -17z" />
    <glyph glyph-name="file-1" unicode="&#xe626;" 
d="M130 -96h608v163h156v797h-764v-960zM882 37h-112v-112v0zM98 896v-1024h665l163 163v861h-828zM770 -75v112h112zM894 67h-156v-163h-608v960h764v-797zM243 744h536v-32h-536v32zM243 632h536v-32h-536v32zM243 520h536v-32h-536v32zM243 408h536v-32h-536v32zM243 296
h536v-32h-536v32zM243 184h536v-32h-536v32z" />
    <glyph glyph-name="abc" unicode="&#xe608;" 
d="M675 194l187 297v183l-830 -2v-576h830v173l-86 -138zM935 544l45 -29l-86 -135v0l-7 -12l-20 -31l-5 -8v0l-27 -43l-69 -111l-47 29l143 227v-1l59 94zM894 704h-894v-640h894v256l130 205l-99 64l-31 -48v163zM32 96v576l830 2v-183l-187 -297l101 -63l86 138v-173
h-830zM175 384q37 33 71.5 49.5t53.5 16.5q5 0 9 -4.5t6.5 -10t2.5 -8.5q0 -4 -3 -6t-12 -5q2 -5 5 -10q2 -6 3.5 -9.5t1.5 -6.5q0 -6 -11.5 -21.5t-16.5 -23.5t-5 -18q0 -18 17 -18t52 31v-14q-60 -68 -87 -68q-9 0 -13 6t-4 18q0 19 14 56q-36 -40 -53 -56.5t-28 -16.5
q-5 0 -13 9.5t-14 24t-6 30.5q0 11 2 18.5t8 15.5t20 21zM291 411q-63 -29 -89.5 -49t-26.5 -41q0 -8 2.5 -13t7.5 -5q2 0 9 3q25 15 46 39t51 66zM507 340v-15q-25 -16 -40 -16q-8 0 -17 2q-21 -27 -36.5 -40t-31.5 -13q-18 0 -28 19.5t-10 47.5q0 38 23.5 83t56 84.5
t63 65.5t41.5 26q10 0 10 -14q0 -64 -162 -221v-17q0 -33 18 -33q7 0 14 5.5t22 21.5q-6 13 -6 19q0 14 11 29.5t24.5 26.5t20.5 11q10 0 10 -14q0 -11 -6 -26t-17 -35q4 -3 6.5 -4.5t7.5 -1.5q11 0 26 9zM384 377q13 10 26 25q12 15 37 46q23 29 36 49q14 20 20.5 32.5
t6.5 17.5q0 4 -2 4q-5 0 -21.5 -17.5t-38.5 -47.5q-30 -43 -43 -64t-21 -45zM652 340v-16q-26 -25 -42 -39t-30.5 -21.5t-27.5 -7.5t-24 10.5t-17.5 27t-6.5 36.5q0 16 7 28.5t28 33.5q25 24 46 37t33 13q9 0 15 -6t6 -15q0 -8 -8 -22t-18 -24.5t-16 -10.5t-6 6v4q1 2 1 3
q0 3 -2.5 3.5t-4.5 -1.5q-24 -17 -33 -24t-14.5 -14t-5.5 -14q0 -15 9.5 -23.5t23.5 -8.5q15 0 37 11q21 12 50 34z" />
    <glyph glyph-name="grades-1" unicode="&#xe628;" 
d="M512 864q-130 0 -240.5 -64.5t-175 -175t-64.5 -240.5t64.5 -240.5t175 -175t240.5 -64.5t240.5 64.5t175 175t64.5 240.5t-64.5 240.5t-175 175t-240.5 64.5zM512 896q-212 0 -362 -150t-150 -362t150 -362t362 -150t362 150t150 362t-150 362t-362 150zM512 -96
q-130 0 -240.5 64.5t-175 175t-64.5 240.5t64.5 240.5t175 175t240.5 64.5t240.5 -64.5t175 -175t64.5 -240.5t-64.5 -240.5t-175 -175t-240.5 -64.5zM512 384zM120 384q0 -162 115 -277t277 -115t277 115t115 277t-115 277t-277 115t-277 -115t-115 -277zM283 555h135
q33 0 59 -3q18 -2 35 -14t26 -29q9 -19 9 -39q0 -22 -13 -43q-12 -19 -33 -29q33 -10 46 -30q16 -21 16 -51q0 -25 -11 -45q-9 -20 -29 -35q-18 -14 -45 -16q-11 -2 -81 -2h-114v336zM350 499v-77h45q43 0 50 2q19 3 27 13q10 9 10 25q0 15 -8 26q-9 9 -26 11q-2 0 -10 0.5
t-21 1t-27 0.5zM350 366v-89h63q40 0 46 1q14 3 24 13t10 29q0 15 -8 26q-9 12 -21 16q-14 4 -59 4h-55zM661 379v67h-69v47h69v67h45v-67h68v-47h-68v-67h-45z" />
    <glyph glyph-name="light-bulb" unicode="&#xe629;" 
d="M367 -46q0 -20 15 -35t36 -15h184q20 0 35 15t15 35v65h-285v-65zM720 796q-30 28 -75.5 45t-72 20t-50.5 3h-22q-24 0 -51 -3t-72.5 -20t-75.5 -45q-60 -55 -60 -155q0 -54 12 -102t23.5 -71.5t34.5 -64.5q19 -32 28.5 -51.5t18.5 -53t9 -67.5v-104h286v104
q0 34 9.5 67.5t19 53t28.5 51.5q23 41 34.5 64.5t23 71.5t11.5 102q0 100 -59 155zM742 820q-34 32 -82.5 50.5t-79 22t-58.5 3.5h-24q-28 0 -58 -3.5t-79 -22t-82 -50.5q-70 -65 -70 -179q0 -45 6 -82.5t19.5 -71.5t22 -50.5t26.5 -49.5q19 -30 28 -48.5t17.5 -47.5
t8.5 -60v-136h350v136q0 44 13 77.5t41 78.5q23 40 36 66.5t25.5 77.5t12.5 110q-5 116 -73 179zM710 403q-19 -32 -28.5 -51.5t-19 -53t-9.5 -67.5v-104h-286v104q0 34 -9 67.5t-18 51.5t-29 53q-23 41 -34.5 64.5t-23.5 71.5t-12 102q0 100 60 155q30 28 75 44.5t72 20
t52 3.5h22q24 0 50.5 -3t72 -20t75.5 -45q59 -55 59 -155q0 -54 -11.5 -102t-23 -71.5t-34.5 -64.5zM335 51v-97q0 -34 24.5 -58t58.5 -24h184q34 0 58 24t24 58v97h-349zM652 19v-39h-285v39h285zM602 -96h-184q-20 0 -34 13t-17 31h285q-3 -18 -17 -31t-33 -13zM640 613
l-22 23l-107 -107l-110 109l-22 -23l114 -115v-147h33v144z" />
    <glyph glyph-name="medal" unicode="&#xe62a;" 
d="M251 449zM773 449zM770 217v1l179 -36l-176 240q-23 -58 -68.5 -101.5t-104.5 -63.5l153 -211l16 171h1zM246 414l-171 -232l179 36l1 -2v0l16 -170l151 208q-59 19 -105.5 61t-70.5 99zM760 524q0 104 -74 177.5t-179 73.5t-179 -72.5t-74 -177t74.5 -178t178.5 -73.5
q106 0 179.5 73t73.5 177zM786 458q6 42 6 68q0 117 -83.5 200t-201.5 83q-117 0 -200 -83.5t-83 -199.5q0 -38 10 -74l-234 -317l226 45l20 -221l212 288q26 -5 51 -5q33 0 59 7l211 -290l21 221l224 -45zM254 525.5q0 104.5 74 177t179 72.5t179 -73.5t74 -177.5
t-73.5 -177t-179.5 -73q-104 0 -178.5 73.5t-74.5 178zM271 46h-1l-15 170l-1 2l-179 -36l171 232q24 -57 70.5 -99t105.5 -61zM770 218v-1l-16 -171h-1l-153 211q59 20 104.5 63.5t68.5 101.5l176 -240zM507 673q-62 0 -106 -44t-44 -105t44 -105t106 -44t106.5 44
t44.5 105t-44.5 105t-106.5 44zM507.5 706q-75.5 0 -129 -53t-53.5 -127.5t53.5 -127.5t129 -53t129 53t53.5 127.5t-53.5 127.5t-129 53zM507 375q-62 0 -106 44t-44 105t44 105t106 44t106.5 -44t44.5 -105t-44.5 -105t-106.5 -44zM466 586h-1l-30 -17l-4 18l38 21h20
v-174h-23v152zM522 540q6 -3 13 -3q10 0 10 8q0 6 -10 10q-14 5 -14 15q0 7 5 11.5t13 4.5t14 -4l-3 -7q-5 3 -11 3q-9 0 -9 -7q0 -5 11 -9q14 -6 14 -17q0 -16 -21 -16q-8 0 -15 4zM579 600v-15h14v-8h-14v-29q0 -11 8 -11q3 0 5 1l1 -7q-3 -2 -9 -2q-7 0 -11 4q-3 4 -3 15
v29h-9v8h9v13z" />
    <glyph glyph-name="mortarboard-1" unicode="&#xe609;" 
d="M512 384zM0 384q0 -139 68.5 -257t186.5 -186.5t257 -68.5t257 68.5t186.5 186.5t68.5 257t-68.5 257t-186.5 186.5t-257 68.5t-257 -68.5t-186.5 -186.5t-68.5 -257zM715 173h43l-20 56zM698 416l-138 82q-22 -12 -48 -12q-33 0 -55 15.5t-22 38t22 37.5t55 15
q32 0 54.5 -15.5t22.5 -37.5q0 -10 -5 -17l150 -90l213 94l-435 207l-435 -207l433 -193zM870 130q-65 138 -43 307l-75 -34v-129l53 -135h-136l53 135v115l-212 -93l-315 141q23 -168 -43 -307q36 -19 79.5 -37.5t125.5 -39.5t153 -21q158 0 360 98zM861 453l163 72
l-512 243l-512 -242l162 -72q4 -23 5.5 -52t0.5 -74t-13.5 -97.5t-36.5 -99.5l-6 -14l13 -8l2 -1q21 -12 46.5 -23.5t81.5 -34t124 -36.5t131 -14q55 0 114.5 11t103.5 25.5t85.5 32t59 26.5t25.5 14l12 8l-6 14q-23 46 -36 97.5t-14 97t1 74.5t6 53zM512 733l435 -207
l-213 -94l-150 90q5 7 5 17q0 22 -22.5 37.5t-54.5 15.5q-33 0 -55 -15t-22 -37.5t22 -38t55 -15.5q26 0 48 12l138 -82l-188 -83l-433 193zM738 229l20 -56h-43zM195 437l315 -141l212 93v-115l-53 -135h136l-53 135v129l75 34q-22 -169 43 -307q-202 -98 -360 -98
q-71 0 -153 21t-125.5 39.5t-79.5 37.5q66 139 43 307zM472 540.5q0 -9.5 11.5 -16.5t28.5 -7t28.5 7t11.5 16.5t-11.5 16.5t-28.5 7t-28.5 -7t-11.5 -16.5z" />
    <glyph glyph-name="musical-note" unicode="&#xe62c;" 
d="M512 864q-130 0 -240.5 -64.5t-175 -175t-64.5 -240.5t64.5 -240.5t175 -175t240.5 -64.5t240.5 64.5t175 175t64.5 240.5t-64.5 240.5t-175 175t-240.5 64.5zM512 896q-212 0 -362 -150t-150 -362t150 -362t362 -150t362 150t150 362t-150 362t-362 150zM512 -96
q-130 0 -240.5 64.5t-175 175t-64.5 240.5t64.5 240.5t175 175t240.5 64.5t240.5 -64.5t175 -175t64.5 -240.5t-64.5 -240.5t-175 -175t-240.5 -64.5zM512 384zM120 384q0 -162 115 -277t277 -115t277 115t115 277t-115 277t-277 115t-277 -115t-115 -277zM723 624zM691 577
v9l-257 -53v-245q-26 14 -52 14q-32 0 -55 -18t-23 -44q0 -25 23 -43.5t55 -18.5q33 0 56 18t23 44v190l200 32v-144q-21 13 -48 13q-33 0 -56 -18t-23 -44t23.5 -44.5t55.5 -18.5t55 18.5t23 44.5v308zM685 616l-258 -53l-25 -3v-226q-7 2 -20 2q-45 0 -77.5 -28
t-32.5 -66.5t32.5 -66.5t78 -28t78 28t32.5 67v161l136 21v-62q-3 0 -8.5 0.5t-7.5 0.5q-46 0 -78.5 -28t-32.5 -66.5t32.5 -66.5t78.5 -28q38 0 67.5 19.5t39.5 49.5l3 34v347zM613 206q-32 0 -55.5 18.5t-23.5 44.5t23 44t56 18q27 0 48 -13v144l-200 -32v-190
q0 -26 -23 -44t-56 -18q-32 0 -55 18.5t-23 43.5q0 26 23 44t55 18q26 0 52 -14v245l257 53v-317q0 -26 -23 -44.5t-55 -18.5z" />
    <glyph glyph-name="negative" unicode="&#xe60a;" 
d="M512 864q-130 0 -240.5 -64.5t-175 -175t-64.5 -240.5t64.5 -240.5t175 -175t240.5 -64.5t240.5 64.5t175 175t64.5 240.5t-64.5 240.5t-175 175t-240.5 64.5zM512 896q-212 0 -362 -150t-150 -362t150 -362t362 -150t362 150t150 362t-150 362t-362 150zM512 -96
q-130 0 -240.5 64.5t-175 175t-64.5 240.5t64.5 240.5t175 175t240.5 64.5t240.5 -64.5t175 -175t64.5 -240.5t-64.5 -240.5t-175 -175t-240.5 -64.5zM512 384zM120 384q0 -162 115 -277t277 -115t277 115t115 277t-115 277t-277 115t-277 -115t-115 -277zM240 400h544v-32
h-544v32z" />
    <glyph glyph-name="mortarboard" unicode="&#xe62e;" 
d="M512 384zM0 384q0 -139 68.5 -257t186.5 -186.5t257 -68.5t257 68.5t186.5 186.5t68.5 257t-68.5 257t-186.5 186.5t-257 68.5t-257 -68.5t-186.5 -186.5t-68.5 -257zM510 347l269 128l173 82l-440 230l-440 -233l165 -79zM893 173h43l-22 56zM227 445v-368
q24 -12 54 -23.5t92.5 -26t124.5 -17.5t143 12.5t154 54.5v371l-285 -136zM928 512h3l93 45l-512 267l-512 -272l195 -91v-402l8 -5q1 -1 16 -8t45.5 -18.5t68 -22t89 -18.5t101.5 -8q159 0 296 75l8 5v405l71 34v-221l-53 -135h136l-53 135v235zM795 77q-73 -39 -154 -54.5
t-143 -12.5t-124.5 17.5t-92.5 26t-54 23.5v368l283 -133l285 136v-371zM779 475l-269 -128l-273 128l-165 79l440 233l440 -230zM936 173h-43l21 56z" />
    <glyph glyph-name="notebook" unicode="&#xe62f;" 
d="M344 864h582v-960h-582v960zM322 864h-160v-75h70v-32h-70v-125h70v-32h-70v-123h70v-32h-70v-123h70v-32h-70v-124h70v-32h-70v-123h70v-32h-70v-75h182v960h-22zM130 896v-107h-64v-32h64v-123h-64v-32h64v-124h-64v-32h64v-123h-64v-32h64v-123h-64v-32h64v-123h-64
v-32h64v-109h828v1024h-828zM926 -96h-764v75h70v32h-70v123h70v32h-70v124h70v32h-70v123h70v32h-70v123h70v32h-70v125h70v32h-70v75h764v-960z" />
    <glyph glyph-name="pencil" unicode="&#xe630;" 
d="M512 384zM0 384q0 -139 68.5 -257t186.5 -186.5t257 -68.5t257 68.5t186.5 186.5t68.5 257t-68.5 257t-186.5 186.5t-257 68.5t-257 -68.5t-186.5 -186.5t-68.5 -257zM790 832l-86 -86l174 -173l87 86zM413 459l-285 -281l174 -173l552 545l-174 173zM83 35l75 -73
l111 28l-157 156zM790 877l-696 -688l-3 -3l-78 -295l293 75l4 2l700 691zM158 -38l-75 73l29 111l157 -156zM302 5l-174 173l285 281l267 264l174 -173zM704 746l86 86l175 -173l-87 -86z" />
    <glyph glyph-name="push-pin" unicode="&#xe631;" 
d="M176 704h672v-672h-672v672zM611 510l-19 8v304h72v42h-315v-42h72v-304l-19 -8l-6 -2.5t-13 -7t-17.5 -11.5t-21 -16t-22 -20t-22 -25.5t-19.5 -30.5t-15.5 -36t-9.5 -41h499q-5 38 -21.5 71.5t-36 54t-40 36t-32.5 22t-14 6.5zM541 288h-53v-326l27 -36l27 36h-1v326z
M626 539v251h72v106h-381v-106h72v-251q-7 -3 -18 -9t-40 -28t-51 -48t-40 -71t-18 -95h236v-338l59 -78l59 78v338h219q-2 137 -123 224q-26 18 -46 27zM515 -74l-27 36v326h53v-326h1zM256 320q5 36 21 68.5t33 52t39.5 37t32 23t19.5 9.5h1l19 8v304h-72v42h315v-42h-72
v-304l19 -8q2 0 14 -6.5t32.5 -22t40 -36t36 -54t21.5 -71.5h-499z" />
    <glyph glyph-name="group" unicode="&#xe632;" 
d="M859 544q30 0 51 21t21 51q0 -30 -21 -51t-51 -21zM787 616q0 -30 21 -51t51 -21q-30 0 -51 21t-21 51zM425 395q27 -41 76 -46q-49 5 -76 46zM859 688q30 0 51 -21t21 -51q0 30 -21 51t-51 21zM859 490q61 0 107 -44t56 -110q2 25 2 48q0 130 -61 243v-11
q0 -43 -30.5 -73.5t-73.5 -30.5t-73.5 30.5t-30.5 73.5t30.5 73.5t73.5 30.5q27 0 50 -12q-72 87 -175.5 137.5t-221.5 50.5t-221.5 -50.5t-175.5 -137.5q23 12 50 12q43 0 73.5 -30.5t30.5 -73.5t-30.5 -73.5t-73.5 -30.5t-73.5 30.5t-30.5 73.5v11q-61 -113 -61 -243
q0 -23 2 -48q10 66 56 110t107 44q67 0 114.5 -52.5t48.5 -127.5h-323q18 -122 89 -222.5t181 -158t237 -57.5t237 57.5t181 158t89 222.5h-325q2 75 50 127.5t115 52.5zM512 594q57 0 97.5 -40.5t40.5 -97.5q0 -56 -41 -97t-97 -41t-97 41t-41 97q0 57 40.5 97.5t97.5 40.5
zM731 48h-438q2 100 65.5 169t153.5 69t153.5 -69t65.5 -169zM523 349q49 5 76 46q-27 -41 -76 -46zM859 688q-30 0 -51 -21t-21 -51q0 30 21 51t51 21zM453 542q-41 -28 -46 -77q5 49 46 77zM419 404l0.5 -1t1.5 -1q2 -5 3 -7h1q27 -41 76 -46h11h11q49 5 76 46h1q1 2 3 7
q1 0 1.5 1t0.5 1.5t2 4.5q0 1 1 2t1 2q1 1 1.5 2.5l0.5 1.5q1 5 2 6q0 1 0.5 2l0.5 1q1 5 1 7q1 1 1 2.5v1.5q1 5 1 7q1 5 1 10q0 44 -31.5 75t-74.5 31q-5 0 -11 -1q-2 0 -6 -1h-2h-2q-2 -1 -7 -2q-1 0 -2 -0.5l-1 -0.5q-2 0 -6 -2q-1 0 -2 -0.5t-2 -0.5q-1 -1 -2.5 -1.5
l-1.5 -0.5q-5 -2 -5.5 -2.5l-1 -1t-1.5 -0.5q-4 -3 -6 -4v0q-41 -28 -46 -77q-1 -5 -1 -10.5t1 -10.5q0 -2 1 -7v-1.5t1 -2.5q0 -2 1 -7l0.5 -1t0.5 -2q1 -1 2 -6l0.5 -1.5t1.5 -1.5l2 -5q2 -4 2 -5zM512 318q56 0 97 41t41 97q0 57 -40.5 97.5t-97.5 40.5t-97.5 -40.5
t-40.5 -97.5q0 -56 41 -97t97 -41zM413 417q-1 5 -2 6q0 1 -0.5 2l-0.5 1q-1 5 -1 7q-1 1 -1 2.5v1.5q-1 5 -1 7q-1 5 -1 10.5t1 10.5q5 49 46 77v0q2 1 6 4q1 0 1.5 0.5t1.5 0.5l5 3l1.5 0.5t2.5 1.5q1 0 2 0.5t2 0.5q4 2 6 2l1 0.5t2 0.5q5 1 7 2h2h2q5 1 6 1q6 1 11 1
q43 0 74.5 -31t31.5 -75q0 -5 -1 -10q0 -2 -1 -7v-1.5t-1 -2.5q0 -2 -1 -7l-0.5 -1t-0.5 -2q-1 -1 -2 -6l-0.5 -1.5t-1.5 -1.5q0 -1 -1 -3q-1 -1 -1 -2q-2 -4 -2 -5l-0.5 -1t-1.5 -1q-2 -5 -3 -7h-1q-27 -41 -76 -46h-11h-11q-49 5 -76 46h-1q-1 2 -3 7q-1 0 -1.5 1
t-0.5 1.5t-2 4.5l-2 4q-1 1 -1.5 2.5zM512 254q-68 0 -120 -49.5t-64 -124.5h368q-12 75 -64 124.5t-120 49.5zM512 286q-90 0 -153.5 -69t-65.5 -169h438q-2 100 -65.5 169t-153.5 69zM328 80q12 75 64 124.5t120 49.5t120 -49.5t64 -124.5h-368zM165 688q-30 0 -51 -21
t-21 -51t21 -51t51 -21t51 21t21 51t-21 51t-51 21zM165 512q43 0 73.5 30.5t30.5 73.5t-30.5 73.5t-73.5 30.5q-27 0 -50 -12q-20 -11 -35.5 -34.5t-18.5 -46.5v-11q0 -43 30.5 -73.5t73.5 -30.5zM165 544q-30 0 -51 21t-21 51t21 51t51 21t51 -21t21 -51t-21 -51t-51 -21z
M165 458q-46 0 -82.5 -33t-47.5 -83h258q-11 50 -46.5 83t-81.5 33zM165 490q-61 0 -107 -44t-56 -110q-2 -14 -2 -26h328q-1 75 -48.5 127.5t-114.5 52.5zM165 458q46 0 81.5 -33t46.5 -83h-258q11 50 47.5 83t82.5 33zM859 616zM787 616q0 -30 21 -51t51 -21t51 21t21 51
t-21 51t-51 21t-51 -21t-21 -51zM755 616q0 -43 30.5 -73.5t73.5 -30.5t73.5 30.5t30.5 73.5v11q-6 55 -54 81q-23 12 -50 12q-43 0 -73.5 -30.5t-30.5 -73.5zM859 544q-30 0 -51 21t-21 51t21 51t51 21t51 -21t21 -51t-21 -51t-51 -21zM860 460h-0.5h-0.5q-47 0 -85 -34
t-49 -86h268q-1 6 -3 12q-14 48 -49.5 78t-80.5 30zM1022 336q-10 66 -56 110t-107 44q-67 0 -115 -52.5t-50 -127.5h330q0 12 -2 26zM727 340h-2q11 52 49 86t85 34h0.5h0.5q45 0 80.5 -30t49.5 -78q2 -6 3 -12h-266v0z" />
    <glyph glyph-name="school" unicode="&#xe633;" 
d="M32 507h960v-603h-960v603zM496 774l-101 61l101 61v-122zM157 312h53v-48h-53v48zM157 395h53v-51h-53v51zM242 312h52v-48h-52v48zM240 395h53v-51h-53v51zM125 427v-195h201v195h-201zM293 344h-53v51h53v-51zM210 264h-53v48h53v-48zM210 344h-53v51h53v-51zM294 264
h-52v48h52v-48zM443 395h53v-51h-53v51zM443 312h53v-48h-53v48zM528 395h53v-51h-53v51zM528 312h53v-48h-53v48zM411 427v-195h202v195h-202zM496 312v-48h-53v48h53zM443 344v51h53v-51h-53zM528 264v48h53v-48h-53zM581 344h-53v51h53v-51zM731 395h53v-51h-53v51z
M814 395h53v-51h-53v51zM814 312h53v-48h-53v48zM730 312h52v-48h-52v48zM699 427v-195h202v195h-202zM782 264h-52v48h52v-48zM784 344h-53v51h53v-51zM867 264h-53v48h53v-48zM867 344h-53v51h53v-51zM427 88h170v-184h-170v184zM528 539v357h-32v-357h-496v-667h1024v667
h-496zM597 -96h-170v184h170v-184zM992 -96h-363v216h-234v-216h-363v603h960v-603z" />
    <glyph glyph-name="star" unicode="&#xe634;" 
d="M923 466h-315l-98 304l-97 -304h-315l256 -185l-98 -303l256 188l256 -188l-101 303zM1024 500h-390l-122 374l-122 -374h-390l315 -230l-121 -375l318 231l317 -232l-122 374zM512 166l-256 -188l98 303l-256 185h315l97 304l98 -304h315l-256 -185l101 -303z" />
    <glyph glyph-name="pencil-1" unicode="&#xe635;" 
d="M512 384zM77 384q0 -88 34.5 -169t92.5 -139t138.5 -92.5t169 -34.5t169 34.5t139 92.5t93 139t34.5 169t-34.5 169t-93 139t-139 92.5t-169 34.5t-169 -34.5t-138.5 -92.5t-92.5 -139t-34.5 -169zM974 637l-206 208q-19 19 -45 19q-27 0 -45 -18l-97 -99l295 -297l98 97
q18 19 18 45.5t-18 44.5zM38 -19l72 -72l219 16l-268 272zM616 665l-58 58l-489 -491l57 -58zM149 152l57 -57l488 492l-57 58zM774 507l-57 58l-488 -493l57 -57zM795 485l-488 -493l58 -57l487 492zM996 659l-206 208q-29 29 -67 29q-40 0 -67 -27l-624 -631l-32 -324
l40 -42l333 24l623 629q28 27 28 67t-28 67zM558 723l58 -58l-490 -491l-57 58zM206 95l-57 57l488 493l57 -58zM717 565l57 -58l-488 -492l-57 57zM307 -8l488 493l57 -58l-487 -492zM110 -91l-72 72l23 216l268 -272zM974 547l-98 -97l-295 297l97 99q18 18 45 18
q26 0 45 -19l206 -208q18 -18 18 -44.5t-18 -45.5z" />
    <glyph glyph-name="plus" unicode="&#xe60b;" 
d="M512 864q-130 0 -240.5 -64.5t-175 -175t-64.5 -240.5t64.5 -240.5t175 -175t240.5 -64.5t240.5 64.5t175 175t64.5 240.5t-64.5 240.5t-175 175t-240.5 64.5zM512 896q-212 0 -362 -150t-150 -362t150 -362t362 -150t362 150t150 362t-150 362t-362 150zM512 -96
q-130 0 -240.5 64.5t-175 175t-64.5 240.5t64.5 240.5t175 175t240.5 64.5t240.5 -64.5t175 -175t64.5 -240.5t-64.5 -240.5t-175 -175t-240.5 -64.5zM512 384zM120 384q0 -162 115 -277t277 -115t277 115t115 277t-115 277t-277 115t-277 -115t-115 -277zM784 400h-256v256
h-32v-256h-256v-32h256v-256h32v256h256v32z" />
    <glyph glyph-name="speech-bubble" unicode="&#xe637;" 
d="M945 824h-865q-20 0 -34 -13.5t-14 -33.5v-551q0 -19 13.5 -32.5t33.5 -13.5h424l9 -7l243 -194v201h190q20 0 33.5 13.5t13.5 32.5v551q0 20 -13.5 33.5t-33.5 13.5zM945 856h-865q-33 0 -56.5 -23t-23.5 -56v-551q0 -32 23 -55t56 -23h413l295 -236v236h158q33 0 56 23
t23 55v551q0 33 -23 56t-56 23zM992 226q0 -19 -13.5 -32.5t-33.5 -13.5h-190v-201l-243 194l-9 7h-424q-20 0 -33.5 13.5t-13.5 32.5v551q0 20 14 33.5t34 13.5h865q20 0 33.5 -13.5t13.5 -33.5v-551zM273 496zM216 496.5q0 -23.5 17 -40.5t40.5 -17t40 17t16.5 40.5
t-16.5 40.5t-40 17t-40.5 -17t-17 -40.5zM512 496zM455 496.5q0 -23.5 16.5 -40.5t40.5 -17t40.5 17t16.5 40.5t-16.5 40.5t-40.5 17t-40.5 -17t-16.5 -40.5zM751 496zM694 496.5q0 -23.5 16.5 -40.5t40 -17t40.5 17t17 40.5t-17 40.5t-40.5 17t-40 -17t-16.5 -40.5z" />
    <glyph glyph-name="screen" unicode="&#xe60c;" 
d="M944 811h-864q-20 0 -34 -13.5t-14 -34.5v-512q0 -20 14 -34t34 -14h864q20 0 34 14t14 34v512q0 21 -14 34.5t-34 13.5zM96 747h832v-480h-832v480zM392 171h240v-145h-240v145zM258 -6h508v-37h-508v37zM944 843h-864q-34 0 -57 -23t-23 -57v-512q0 -33 23 -56.5
t57 -23.5h280v-145h-134v-101h572v101h-134v145h280q34 0 57 23.5t23 56.5v512q0 34 -23 57t-57 23zM392 26v145h240v-145h-240zM766 -43h-508v37h508v-37zM992 251q0 -20 -14 -34t-34 -14h-864q-20 0 -34 14t-14 34v512q0 21 14 34.5t34 13.5h864q20 0 34 -13.5t14 -34.5
v-512zM306 656v-299q43 14 92 14q53 0 101 -19v298q-48 24 -109 24q-42 0 -84 -18zM533 648v-296q48 19 101 19q49 0 92 -14v297q-40 18 -84 18q-61 0 -109 -24zM642 704q-32 0 -63.5 -7t-46.5 -15l-15 -7q-55 29 -127 29q-61 0 -116 -29v-365q53 29 124 29q62 0 117 -29
q54 29 117 29q32 0 63 -7t47 -14l15 -8v365q-50 29 -115 29zM499 352q-48 19 -101 19q-49 0 -92 -14v299q42 18 84 18q61 0 109 -24v-298zM726 357q-43 14 -92 14q-53 0 -101 -19v296q48 24 109 24q44 0 84 -18v-297z" />
    <glyph glyph-name="online" unicode="&#xe639;" 
d="M952 578h-878q-42 -91 -42 -194t42 -194h876q42 91 42 194q0 101 -40 194zM1024 384q0 104 -40.5 199t-109 163.5t-163.5 109t-199 40.5t-199 -40.5t-163.5 -109t-109 -163.5t-40.5 -199q0 -123 54.5 -230.5t149.5 -178.5t212 -93v-1q28 -5 53 -7q17 -2 34 -2h5
q42 1 105 12q116 23 210 94t147.5 177.5t53.5 228.5zM936 610h-78q-61 131 -175 222q81 -31 146.5 -88.5t106.5 -133.5zM594 858q12 -8 32 -22t57 -44.5t75 -79t64 -102.5h-180q-34 139 -95 252q32 -3 47 -4zM610 610h-194q35 141 96 251q61 -110 98 -251zM477 862
q-61 -113 -95 -252h-180q73 150 228 248q15 1 47 4zM341 832q-117 -96 -173 -222h-80q41 76 106.5 133.5t146.5 88.5zM32 384q0 103 42 194h878q40 -93 40 -194q0 -103 -42 -194h-876q-42 91 -42 194zM88 158h77q59 -131 171 -220q-79 30 -143 87.5t-105 132.5zM426 -88
q-19 11 -39.5 26.5t-56 46t-70.5 76.5t-60 97h176q31 -133 101 -252q-36 3 -51 6zM410 158h204q-29 -126 -102 -248q-73 125 -102 248zM546 -94q69 118 100 252h176q-24 -51 -59 -97t-70 -77t-56.5 -46.5t-38.5 -25.5q-17 -3 -52 -6zM688 -62q116 98 171 220h77
q-41 -75 -105 -132.5t-143 -87.5zM106 389q0 25 8 49q4 10 17 26q8 8 24 18q19 8 42 8q44 0 67 -26q26 -26 26 -72t-26 -72q-23 -26 -67 -26t-67 26q-24 26 -24 69zM146 390.5q0 -32.5 14 -49.5q14 -16 38 -16q23 0 39 16q14 17 14 49.5t-14 49.5q-14 16 -38.5 16t-38.5 -16
q-14 -17 -14 -49.5zM446 294h-36v71q0 24 -2 29q-2 6 -8 9q-3 3 -13 3t-17.5 -4.5t-9.5 -14.5q-3 -13 -3 -32v-62h-37v137h34v-20q19 24 44 24q13 0 23 -5t14 -11q7 -10 7 -16q1 -7 1 -24zM483 294v192h37v-190h-37v-2zM557 451v34h37v-34h-37zM557 294v138h37v-138h-37z
M757 294h-37v71q0 24 -2 29q-2 6 -8 9q-3 3 -12 3q-11 0 -18 -4.5t-10 -14.5q-3 -13 -3 -32v-62h-37v137h34v-20q19 24 45 24q13 0 22 -5q11 -5 15 -11q6 -10 6 -16q2 -7 2 -24zM874 339l36 -6q-7 -21 -22 -31q-17 -11 -38 -11q-36 0 -53 24q-15 19 -15 48q0 34 18 55
q17 19 45 19q32 0 48 -21q17 -20 17 -62h-91q0 -16 9.5 -26t21.5 -10q9 0 14 5q8 8 10 16zM877 376q0 16 -8 24t-19.5 8t-19.5 -8q-8 -11 -8 -24h55z" />
    <glyph glyph-name="head-brains" unicode="&#xe611;" 
d="M326 -121q1 54 -15 85.5t-46 39.5q-21 13 -53 19l-10 2q-12 2 -37 5q-32 3 -48 6l-8 2q-28 5 -31 14q-4 12 9 41l3 8q14 32 6 55q-2 8 -8 16q5 4 8 8q16 24 -8 51l-1 1q1 1 1.5 2t1.5 2q20 30 17 58q0 1 -0.5 2l-0.5 1q-3 14 -12 24t-15.5 13.5t-18.5 7.5q-15 6 -18 10
q-2 2 -2 5l91 96q19 20 37 40q3 3 4 6l4 11q10 24 -7 55l-3 7q-3 4 -3 7q-1 1 -1 4v0q6 31 20 63q12 27 29 55q16 25 36 51q13 18 31 38q16 15 35 28q7 4 16 10q11 7 21 12q34 18 72 29q73 21 154 20q102 -8 175 -34q12 -4 24 -9q16 -7 31 -14q33 -17 61 -40q8 -5 14 -11
q12 -10 22 -21q13 -15 25 -33q35 -55 49 -137q1 -6 3 -17l2 -23q6 -66 -8 -120l-3 -12t-6 -18q-8 -30 -26 -62q-4 -7 -10 -17q-5 -9 -9 -14q-12 -17 -28 -39q0 -1 -20 -26q-39 -51 -56 -77q-23 -36 -36 -69q-9 -25 -14 -51q-1 -14 -1 -36q-2 -31 -3 -84v-9q0 -7 1 -16t2 -15
l1 -6h-440zM416 671q9 0 19 -1q5 52 44.5 87.5t93.5 35.5q44 0 79.5 -25t50.5 -65q14 3 27 3q43 0 73.5 -30.5t30.5 -73.5q0 -21 -8 -40q27 -9 43.5 -31.5t16.5 -50.5q0 -36 -25.5 -61.5t-61.5 -25.5q-45 0 -83.5 -31.5t-38.5 -73.5v105q0 29 -20 49t-49 20h-192
q-43 0 -73.5 31t-30.5 74t30.5 73.5t73.5 30.5zM990 548l-3 23q-1 10 -2 17q-14 84 -51 141q-12 19 -27 35q-10 12 -22 22q-8 6 -15 11q-29 23 -63 41q-14 8 -31 15q-12 5 -25 9q-73 26 -176 34q-83 1 -156 -21q-39 -11 -74 -29q-10 -5 -22 -13l-16 -10q-20 -13 -37 -29
q-1 0 -2 -2q-17 -20 -30 -37q-21 -27 -36 -52q-18 -28 -30 -56q-14 -33 -21 -65q-1 -4 0 -7q1 -4 1 -7q2 -5 5 -11l3 -6q12 -23 7 -37l-5 -10q-19 -21 -36 -39l-88 -94q-6 -6 -6 -14q0 -10 7 -18q7 -7 26 -15q15 -5 22.5 -11t9.5 -18q2 -20 -13 -44l-2 -4q-9 -13 3 -26
q12 -14 6 -23l-4 -4q-7 -5 -8 -13t4 -15q3 -5 5 -10q5 -15 -5 -40l-4 -7q-15 -35 -8 -56q3 -9 11.5 -14.5t15 -7.5t18.5 -4l7 -1q17 -4 49 -7q24 -3 35 -4l9 -2q27 -6 46 -17q2 -1 5 -2q45 -11 43 -101q0 -9 6 -15t14 -6h1q8 0 14 6t6 14q2 68 -20 100t-51 41q-23 13 -56 20
l-10 2q-13 2 -38 4q-30 4 -45 7l-8 1q-10 2 -14 3q0 6 8 23l3 7q16 39 7 68q-1 3 -3 7q21 30 -1 62q18 31 15 62q0 1 -1 5q-9 39 -53 57l72 76q18 20 36 39q5 6 8 13l4 10q13 32 -8 71l-3 6q-1 1 -1 2q6 26 18 53q11 25 27 51q14 23 33 48q13 17 28 35q15 13 32 24l14 10
q10 6 20 11q31 16 67 26q67 20 142 19q97 -8 165 -32q11 -3 22 -8q15 -6 29 -13q30 -16 56 -37q7 -5 13 -10q10 -9 19 -18q12 -14 23 -30q32 -50 45 -126q1 -5 2 -15l2 -22q6 -61 -7 -110q-1 -4 -2 -11q-3 -7 -6 -18q-8 -27 -24 -56q-4 -6 -9 -15q-6 -9 -9 -14
q-11 -16 -27 -37q-4 -6 -13 -17l-6 -9q-38 -49 -55 -75q-24 -37 -37 -71q-10 -26 -15 -56q-1 -13 -1 -35q-2 -30 -3 -82v-9q0 -14 4 -39l20 2l-15 14l31 -27q6 7 4 19q-3 20 -3 30v9q1 50 2 81q1 20 2 32q4 24 12 47q12 30 33 63q16 25 54 74l5 7q9 12 14 17q16 22 28 40
q4 5 9 14q7 10 11 18q19 33 26 63q4 9 7 19q2 7 3 12q14 56 8 124zM897 477q0 29 -14.5 53.5t-39.5 38.5q3 13 3 27v0q0 54 -40.5 91t-95.5 30q-19 39 -57 62.5t-82 23.5q-54 0 -96 -33.5t-55 -85.5q-51 0 -87 -35.5t-36 -86.5q0 -50 35.5 -86t86.5 -36h186q20 0 34 -14
t14 -34v-101q0 -9 6 -15t14 -6t14 6t6 15q0 32 32 56.5t67 24.5q43 0 74 31t31 74zM693 374v18q0 37 -25.5 63t-62.5 26h-186q-34 0 -58 23.5t-24 57.5t24 57.5t58 23.5q7 0 14 -1h4q6 0 12 4q7 5 8 14q5 44 37.5 73t76.5 29q36 0 66 -20.5t42 -54.5q3 -7 10 -10.5t14 -1.5
q11 2 21 2q34 0 57.5 -23.5t23.5 -57.5q0 -16 -6 -31q-1 -4 -1 -8t2 -8q3 -8 12 -11q20 -6 32 -23t12 -38q0 -26 -19 -45t-45 -19q-55 0 -99 -39zM571 599h34v-40h-34v40zM504 599h33v-40h-33v40zM639 599h34v-40h-34v40z" />
    <glyph glyph-name="diannao" unicode="&#xe66c;" 
d="M334 391v178h-74v-252h386v74h-312zM349 688h415v-282h-415v282zM512 191zM475 191.5q0 -15.5 11 -26.5t26.5 -11t26 11t10.5 26.5t-10.5 26t-26 10.5t-26.5 -10.5t-11 -26zM157 740v-460h15v445h681v-445h15v460h-711zM512 754zM505 754.5q0 -7.5 7.5 -7.5t7.5 7.5
t-7.5 7.5t-7.5 -7.5zM868 799h-711q-25 0 -42.5 -17.5t-17.5 -41.5v-578q0 -25 17.5 -42t42.5 -17h260q-35 -104 -112 -104q-6 0 -10.5 -4.5t-4.5 -10.5t4.5 -10.5t10.5 -4.5h415q6 0 10 4.5t4 10.5t-4 10.5t-10 4.5q-77 0 -112 104h260q24 0 41.5 17t17.5 42v578
q0 24 -17.5 41.5t-41.5 17.5zM637 -1h-249q40 34 61 103v1h127v-1v0q21 -69 61 -103zM897 162q0 -12 -8.5 -21t-20.5 -9h-711q-13 0 -21.5 9t-8.5 21v89h770v-89zM127 280v460q0 12 8.5 20.5t21.5 8.5h711q12 0 20.5 -8.5t8.5 -20.5v-460h-770z" />
    <glyph glyph-name="jilu" unicode="&#xe677;" 
d="M623 759v-157h158zM335 302q-2 -1 -4 -1h-2q-4 1 -5 4l-46 79v-341q0 -13 10 -23t23 -10h195l-168 294zM607 569q-7 0 -12 4.5t-5 11.5v197h-279q-13 0 -23 -9.5t-10 -23.5v-170q2 -1 3 -2v0l79 -150v0q1 -3 1 -6q-3 -8 -11 -6q-3 1 -5 4v0l-67 127v-12l110 -191
q1 -2 1 -4v-3q-1 -3 -4 -4v-1l-3 -1l184 -320h205q7 0 13 3q20 8 20 30v526h-197zM492 684h-148v-17h148v17zM344 634v-16h181v16h-181zM344 109v-16h115l-9 16h-106zM607 257h-183l10 -17h173v17zM518 93h220v16h-229zM344 293v-3h2zM365 257h-21v-17h30zM344 503v-16h394
v16h-394zM354 437h384v17h-392zM362 388h376v17h-385zM388 343q1 -2 1 -4h349v16h-357zM405 290h333v16h-342zM738 180l-11 11l-22 -21l-21 21l-12 -11l22 -22l-22 -21l12 -12l21 22l22 -22l11 12l-21 21zM832 597l-214 213q-4 5 -11 5v0h-296q-27 0 -46.5 -19t-19.5 -47
v-158l-8 15q-2 4 -7 4q-2 0 -4 -1l-50 -29q-3 -2 -4 -5q-1 -2 -1 -3q0 -2 2 -4l72 -127v-398q0 -27 19.5 -46t46.5 -19h214l6 -11l2 -2v0l36 -27v0q1 -1 3 -1q8 -2 10 6v3v0v0v0v0v0l-4 32h193q27 0 46.5 19t19.5 46v542v0q0 7 -5 12zM623 759l158 -157h-158v157zM311 10
q-13 0 -23 10t-10 23v341l46 -79q1 -3 4.5 -3.5t6.5 0.5l3 2l168 -294h-195zM804 43q0 -13 -9.5 -23t-23.5 -10h-205l-184 320l3 1v1q3 1 4 4v3q0 2 -1 4l-110 191v12l67 -127v0q2 -3 5 -4q8 -2 11 6q0 3 -1 6v0l-79 150v0q-1 1 -3 2v170q0 14 10 23.5t23 9.5h279v-197
q0 -7 5 -11.5t12 -4.5h197v-526z" />
    <glyph glyph-name="caogao" unicode="&#xe678;" 
d="M490 322l-40 41l-27 -68zM468 393l53 -53l302 303l-53 53zM872 772l-40 -41l27 -27l41 41zM533 304q-3 -3 -7 -4v-1l-128 -51v0v0v0q-3 -1 -5 -1q-8 0 -13 5t-5 12q0 3 1 5v1h1v1l51 127v0q1 4 4 7v0l202 203h-499q-14 0 -24 -10t-10 -25v-565q0 -15 10 -25t24 -10h566
q14 0 24 10t10 25v498l-202 -202v0zM714 639l56 57l53 -53l-56 -57zM375 264v1h-154v-17h168q-14 2 -14 16zM221 213v-17h394v17h-394zM221 145h326v17h-326v-17zM684 471v-446h-532v531h448l17 17h-482v-565h566v480zM541 361l12 12l-53 53l-12 -12zM936 733q5 5 5 12v0
q0 7 -5 12l-51 51q-5 5 -12 5v0v0q-8 0 -13 -5l-55 -55q-20 6 -35 -9q0 -1 -1 -2l-101 -100h-533q-28 0 -48 -20t-20 -49v-565q0 -29 20 -49t48 -20h566q28 0 48 20t20 49v532l101 101q1 1 2 1q15 15 8 35zM770 695l53 -52l-302 -303l-53 53zM491 322l-68 -27l27 68zM735 8
q0 -15 -10 -25t-24 -10h-566q-14 0 -24 10t-10 25v565q0 15 10 25t24 10h499l-202 -203v0q-3 -3 -4 -7l-51 -126q-2 -4 -2 -8q0 -7 5 -12t13 -5q2 0 5 1v0v0q1 0 2 1l126 50q4 2 7 5v0l202 202v-498zM860 705v0l-1 -1l-27 27l41 41l27 -27z" />
    <glyph glyph-name="shehzi" unicode="&#xe67e;" 
d="M823 341q3 22 3 43t-3 43v5q0 15 10 25l71 68l-74 128l-94 -27q-5 -1 -10 -1v0q-12 0 -21 7q-35 27 -75 43q-16 7 -20 24l-24 96h-147l-24 -96q-4 -17 -21 -24q-40 -16 -74 -43q-10 -7 -22 -7q-5 0 -9 1l-95 27l-73 -128l70 -68q11 -10 11 -25v-5q-3 -22 -3 -43t3 -43v-5
q0 -15 -11 -25l-70 -68l73 -128l95 27q4 1 9 1q12 0 22 -7q34 -27 74 -43q17 -7 21 -24l24 -96h147l24 96q4 17 20 24q40 16 75 43q9 7 21 7q5 0 10 -1l94 -27l74 128l-71 68q-10 10 -10 25v5zM516.5 209q-72.5 0 -123.5 51.5t-51 123.5t51 123.5t123.5 51.5t123.5 -51.5
t51 -123.5t-51 -123.5t-123.5 -51.5zM516.5 629q-101.5 0 -173 -72t-71.5 -173t71.5 -173t173 -72t173 72t71.5 173t-71.5 173t-173 72zM516.5 209q-72.5 0 -123.5 51.5t-51 123.5t51 123.5t123.5 51.5t123.5 -51.5t51 -123.5t-51 -123.5t-123.5 -51.5zM516.5 559
q-72.5 0 -123.5 -51.5t-51 -123.5t51 -123.5t123.5 -51.5t123.5 51.5t51 123.5t-51 123.5t-123.5 51.5zM517 244q-58 0 -99 41t-41 99t41 99t99 41t98.5 -41t40.5 -99t-40.5 -99t-98.5 -41zM938 258l-81 78q4 24 4 48t-4 48l81 78v0q9 9 3 21l-88 151q-5 9 -15 9q-2 0 -4 -1
v0l-108 -30q-38 30 -83 48l-27 108v0q-3 13 -17 13h-174q-13 0 -17 -13v0l-27 -108q-44 -18 -83 -48l-107 30v0q-2 1 -5 1q-10 0 -15 -9l-87 -151q-7 -12 3 -21v0l80 -78q-3 -24 -3 -48t3 -48l-80 -78v0q-10 -9 -3 -21l87 -151q5 -9 15 -9q3 0 5 1v0l107 30q39 -30 83 -48
l27 -108v0q4 -13 17 -13h174q14 0 17 13v0l27 108q45 18 83 48l108 -30v0q2 -1 4 -1q10 0 15 9l88 151q6 12 -3 21v0zM830 115l-94 27q-5 1 -10 1q-12 0 -21 -7q-35 -27 -75 -43q-16 -7 -20 -24l-24 -96h-147l-24 96q-4 17 -21 24q-40 16 -74 43q-10 7 -22 7q-5 0 -9 -1
l-95 -27l-73 128l70 68q11 10 11 25v5q-3 22 -3 43t3 43v5q0 15 -11 25l-70 68l73 128l95 -27q4 -1 9 -1q12 0 22 7q34 27 74 43q17 7 21 24l24 96h147l24 -96q4 -17 20 -24q40 -16 75 -43q9 -7 21 -7q5 0 10 1l94 27l74 -128l-71 -68q-10 -10 -10 -25v-5q3 -22 3 -43
t-3 -43v-5q0 -15 10 -25l71 -68z" />
  </font>
</defs>
</svg>
